<svg xmlns="http://www.w3.org/2000/svg" xmlns:xlink="http://www.w3.org/1999/xlink" fill="none" version="1.1" width="24.5" height="24" viewBox="0 0 24.5 24"><g><g><path d="M12.25,2.842170943040401e-14C5.48451,2.842170943040401e-14,0,5.484510000000029,0,12.250000000000028C0,14.688200000000029,0.768513,16.09570000000003,2.40971,16.44300000000003C2.40971,16.44300000000003,2.64164,16.48560000000003,2.64164,16.48560000000003C3.56453,16.64170000000003,3.92465,16.58790000000003,6.66172,15.879100000000028C6.66172,15.879100000000028,7.38114,15.692200000000028,7.38114,15.692200000000028C9.40026,15.166500000000028,10.7835,14.924700000000028,12.25,14.924700000000028C13.6499,14.924700000000028,14.9738,15.145000000000028,16.8474,15.622200000000028C16.8474,15.622200000000028,18.605,16.07610000000003,18.605,16.07610000000003C20.7479,16.62030000000003,21.0603,16.62740000000003,21.9744,16.465500000000027C23.6953,16.160600000000027,24.5,14.744900000000028,24.5,12.250000000000028C24.5,5.484510000000029,19.0155,2.842170943040401e-14,12.25,2.842170943040401e-14C12.25,2.842170943040401e-14,12.25,2.842170943040401e-14,12.25,2.842170943040401e-14Z" fill="#40AE36" fill-opacity="1"/></g><g><path d="M16,3.75C16,1.67893,14.321069999999999,0,12.25,0C10.17893,0,8.5,1.67893,8.5,3.75C8.5,5.82107,10.17893,7.5,12.25,7.5C14.321069999999999,7.5,16,5.82107,16,3.75ZM10.5,3.75C10.5,2.7835,11.2835,2,12.25,2C13.2165,2,14,2.7835,14,3.75C14,4.7165,13.2165,5.5,12.25,5.5C11.2835,5.5,10.5,4.7165,10.5,3.75Z" fill-rule="evenodd" fill="#FFFFFF" fill-opacity="1"/></g><g><path d="M12.25,16.5C14.321069999999999,16.5,16,18.17893,16,20.25C16,22.32107,14.321069999999999,24,12.25,24C10.17893,24,8.5,22.32107,8.5,20.25C8.5,18.17893,10.17893,16.5,12.25,16.5C12.25,16.5,12.25,16.5,12.25,16.5Z" fill="#40AE36" fill-opacity="1"/></g></g></svg>