<svg xmlns="http://www.w3.org/2000/svg" xmlns:xlink="http://www.w3.org/1999/xlink" fill="none" version="1.1" width="24.5" height="24" viewBox="0 0 24.5 24"><g><g><path d="M24.5,12.25C24.5,5.48451,19.0155,0,12.25,0C5.48451,0,0,5.48451,0,12.25C0,14.6882,0.768513,16.0957,2.40971,16.443L2.64164,16.4856L2.99912,16.5371L3.16824,16.5516L3.33865,16.5575L3.51614,16.554L3.7065,16.54C3.73962,16.5368,3.77352,16.5331,3.80832,16.5289L4.02883,16.4977L4.27667,16.4541L4.71234,16.363L5.05383,16.2841L5.65709,16.1362L7.7767,15.5908C9.58506,15.1354,10.8812,14.9247,12.25,14.9247C13.6499,14.9247,14.9738,15.145,16.8474,15.6222L18.605,16.0761L19.104,16.2012L19.728,16.3496L20.0732,16.4243L20.3718,16.4812L20.632,16.5213L20.8625,16.5462C20.8989,16.5491,20.9344,16.5515,20.9692,16.5532L21.1708,16.5574L21.3636,16.5495C21.4274,16.5449,21.4911,16.5386,21.5562,16.5307L21.757,16.5022L21.9744,16.4655C23.6953,16.1606,24.5,14.7449,24.5,12.25ZM12.25,2C11.2835,2,10.5,2.7835,10.5,3.75C10.5,4.7165,11.2835,5.5,12.25,5.5C13.2165,5.5,14,4.7165,14,3.75C14,2.7835,13.2165,2,12.25,2ZM15.8744,2.78379L15.8342,2.64404C19.7275,4.09737,22.5,7.84987,22.5,12.2499C22.5,13.833,22.2289,14.3594,21.6795,14.4851L21.6255,14.496L21.4984,14.5166L21.3122,14.5361L21.1832,14.5402L21.044,14.536L20.8891,14.5226L20.7131,14.499L20.5107,14.4643L20.2764,14.4174L19.8534,14.3224L19.1273,14.1443L17.197,13.6475C15.248,13.1571,13.8137,12.9246,12.25,12.9246C10.6508,12.9246,9.18682,13.1678,7.16932,13.6814L5.26615,14.171L4.63977,14.324L4.1538,14.4319L3.89324,14.4816L3.67321,14.5151L3.48494,14.5341L3.3197,14.5402C3.29359,14.5402,3.26807,14.5397,3.24297,14.5388L3.09584,14.5283L2.87453,14.496C2.28891,14.3923,2,13.884,2,12.2499C2,7.84987,4.77246,4.09737,8.66561,2.64441C8.55795,2.99387,8.5,3.36512,8.5,3.74991C8.5,5.82098,10.1789,7.49991,12.25,7.49991C14.3211,7.49991,16,5.82098,16,3.74991C16,3.41587,15.9563,3.09203,15.8744,2.78379ZM12.25,16.5C14.3211,16.5,16,18.1789,16,20.25C16,22.3211,14.3211,24,12.25,24C10.1789,24,8.5,22.3211,8.5,20.25C8.5,18.1789,10.1789,16.5,12.25,16.5ZM12.25,18.5C11.2835,18.5,10.5,19.2835,10.5,20.25C10.5,21.2165,11.2835,22,12.25,22C13.2165,22,14,21.2165,14,20.25C14,19.2835,13.2165,18.5,12.25,18.5Z" fill-rule="evenodd" fill="#666666" fill-opacity="1"/></g></g></svg>