<svg xmlns="http://www.w3.org/2000/svg" xmlns:xlink="http://www.w3.org/1999/xlink" fill="none" version="1.1" width="19.5" height="23.5" viewBox="0 0 19.5 23.5"><g><g><path d="M9.75,0C15.1348,0,19.5,4.36522,19.5,9.75C19.5,15.1348,15.1348,19.5,9.75,19.5C4.36522,19.5,0,15.1348,0,9.75C0,4.36522,4.36522,0,9.75,0ZM9.75,2C5.46979,2,2,5.46979,2,9.75C2,14.0302,5.46979,17.5,9.75,17.5C14.0302,17.5,17.5,14.0302,17.5,9.75C17.5,5.46979,14.0302,2,9.75,2ZM13.6073,13.3205C14.0605,13.0047,14.1719,12.3814,13.8561,11.9283C13.5404,11.4752,12.9171,11.3638,12.464,11.6795C11.5358,12.3262,10.6771,12.635,9.87896,12.635C9.08077,12.635,8.22209,12.3262,7.29394,11.6795C6.8408,11.3638,6.21751,11.4752,5.90178,11.9283C5.58605,12.3814,5.69744,13.0047,6.15057,13.3205C7.39428,14.187,8.64007,14.635,9.87896,14.635C11.1178,14.635,12.3636,14.187,13.6073,13.3205ZM18.5,22.5C18.5,21.9477,18.0523,21.5,17.5,21.5L2.5,21.5C1.94772,21.5,1.5,21.9477,1.5,22.5C1.5,23.0523,1.94772,23.5,2.5,23.5L17.5,23.5C18.0523,23.5,18.5,23.0523,18.5,22.5Z" fill-rule="evenodd" fill="#666666" fill-opacity="1"/></g></g></svg>