<svg xmlns="http://www.w3.org/2000/svg" xmlns:xlink="http://www.w3.org/1999/xlink" fill="none" version="1.1" width="19.5" height="23.5" viewBox="0 0 19.5 23.5"><g><g><path d="M9.75,0C15.1348,0,19.5,4.36522,19.5,9.75C19.5,15.1348,15.1348,19.5,9.75,19.5C4.36522,19.5,0,15.1348,0,9.75C0,4.36522,4.36522,0,9.75,0ZM12.464,11.6796C11.5358,12.3263,10.6771,12.6351,9.87896,12.6351C9.08077,12.6351,8.22209,12.3263,7.29394,11.6796C6.8408,11.3639,6.21751,11.4753,5.90178,11.9284C5.58605,12.3815,5.69744,13.0048,6.15057,13.3206C7.39428,14.1871,8.64007,14.6351,9.87896,14.6351C11.1178,14.6351,12.3636,14.1871,13.6073,13.3206C14.0605,13.0048,14.1719,12.3815,13.8561,11.9284C13.5404,11.4753,12.9171,11.3639,12.464,11.6796ZM18.5,22.5C18.5,21.9477,18.0523,21.5,17.5,21.5L2.5,21.5C1.94772,21.5,1.5,21.9477,1.5,22.5C1.5,23.0523,1.94772,23.5,2.5,23.5L17.5,23.5C18.0523,23.5,18.5,23.0523,18.5,22.5Z" fill-rule="evenodd" fill="#40AE36" fill-opacity="1"/></g></g></svg>