<svg xmlns="http://www.w3.org/2000/svg" xmlns:xlink="http://www.w3.org/1999/xlink" fill="none" version="1.1" width="25.1259765625" height="23" viewBox="0 0 25.1259765625 23"><g><g><path d="M8.6975,19.521C9.6582,19.521,10.437,20.2998,10.437,21.2605C10.437,22.2212,9.6582,23,8.6975,23C7.73681,23,6.95801,22.2212,6.95801,21.2605C6.95801,20.2998,7.73681,19.521,8.6975,19.521C8.6975,19.521,8.6975,19.521,8.6975,19.521ZM20.2942,19.521C21.2549,19.521,22.0337,20.2998,22.0337,21.2605C22.0337,22.2212,21.2549,23,20.2942,23C19.3335,23,18.5547,22.2212,18.5547,21.2605C18.5547,20.2998,19.3335,19.521,20.2942,19.521C20.2942,19.521,20.2942,19.521,20.2942,19.521ZM3.26525,0.000330157C4.041,0.000443896,4.70377,0.559597,4.83451,1.32425C4.83451,1.32425,5.25809,3.80172,5.25809,3.80172C5.32347,4.1841,5.65492,4.46369,6.04284,4.46369C6.04284,4.46369,23.5337,4.46369,23.5337,4.46369C24.4131,4.46369,25.126,5.17657,25.126,6.05595C25.126,6.13391,25.1202,6.21176,25.1088,6.28888C25.1088,6.28888,23.6093,16.429,23.6093,16.429C23.4939,17.2099,22.8236,17.7883,22.0342,17.7883C22.0342,17.7883,6.94145,17.7883,6.94145,17.7883C6.16567,17.7883,5.5028,17.2292,5.37198,16.4645C5.37198,16.4645,3.01526,2.6886,3.01526,2.6886C2.94985,2.30627,2.61842,2.02672,2.23052,2.02672C2.23052,2.02672,1.01343,2.02672,1.01343,2.02672C0.453729,2.02672,6.85439e-17,1.57299,0,1.01328C-6.0919e-17,0.515843,0.35845,0.102122,0.831145,0.0163254C0.831145,0.0163254,1.01343,0,1.01343,0C1.01343,0,3.26525,0.000330157,3.26525,0.000330157C3.26525,0.000330157,3.26525,0.000330157,3.26525,0.000330157Z" fill="#40AE36" fill-opacity="1"/></g></g></svg>