<svg xmlns="http://www.w3.org/2000/svg" xmlns:xlink="http://www.w3.org/1999/xlink" fill="none" version="1.1" width="25.1259765625" height="23" viewBox="0 0 25.1259765625 23"><g><g><path d="M3.26525,0.000330157C4.041,0.000443896,4.70377,0.559597,4.83451,1.32425L5.25809,3.80172C5.32347,4.1841,5.65492,4.46369,6.04284,4.46369L23.5337,4.46369C24.4131,4.46369,25.126,5.17657,25.126,6.05595C25.126,6.13391,25.1202,6.21176,25.1088,6.28888L23.6093,16.429C23.4939,17.2099,22.8236,17.7883,22.0342,17.7883L6.94145,17.7883C6.16567,17.7883,5.5028,17.2292,5.37198,16.4645L3.01526,2.6886C2.94985,2.30627,2.61842,2.02672,2.23052,2.02672L1.01343,2.02672C0.453729,2.02672,0,1.57299,0,1.01328C0,0.515843,0.35845,0.102122,0.831145,0.0163254L1.01343,0L3.26525,0.000330157ZM22.1111,6.49054L6.66161,6.49054C6.22192,6.49054,5.86548,6.84698,5.86548,7.28667L5.87688,7.42093L7.19063,15.0996C7.25604,15.4819,7.58747,15.7614,7.97536,15.7614L20.9771,15.7614C21.3719,15.7614,21.7071,15.4721,21.7647,15.0816L22.8987,7.40298C22.9629,6.96801,22.6624,6.56332,22.2274,6.49908L22.1111,6.49054ZM10.437,21.2605C10.437,20.2998,9.6582,19.521,8.6975,19.521C7.73681,19.521,6.95801,20.2998,6.95801,21.2605C6.95801,22.2212,7.73681,23,8.6975,23C9.6582,23,10.437,22.2212,10.437,21.2605ZM22.0337,21.2605C22.0337,20.2998,21.2549,19.521,20.2942,19.521C19.3335,19.521,18.5547,20.2998,18.5547,21.2605C18.5547,22.2212,19.3335,23,20.2942,23C21.2549,23,22.0337,22.2212,22.0337,21.2605Z" fill-rule="evenodd" fill="#666666" fill-opacity="1"/></g></g></svg>