<svg xmlns="http://www.w3.org/2000/svg" xmlns:xlink="http://www.w3.org/1999/xlink" fill="none" version="1.1" width="23.491455078125" height="22.77557373046875" viewBox="0 0 23.491455078125 22.77557373046875"><g><g><path d="M10.5,5.25C10.5,2.35051,8.1495,0,5.25,0C2.35051,0,0,2.35051,0,5.25C0,8.1495,2.35051,10.5,5.25,10.5C8.1495,10.5,10.5,8.1495,10.5,5.25ZM22,5.25C22,2.35051,19.6495,0,16.75,0C13.8505,0,11.5,2.35051,11.5,5.25C11.5,8.1495,13.8505,10.5,16.75,10.5C19.6495,10.5,22,8.1495,22,5.25ZM10.5,16.75C10.5,13.8505,8.1495,11.5,5.25,11.5C2.35051,11.5,0,13.8505,0,16.75C0,19.6495,2.35051,22,5.25,22C8.1495,22,10.5,19.6495,10.5,16.75ZM22,16.75C22,13.8505,19.6495,11.5,16.75,11.5C13.8505,11.5,11.5,13.8505,11.5,16.75C11.5,19.6495,13.8505,22,16.75,22C17.9851,22,19.1206,21.5735,20.0172,20.8598L21.8147,22.5117L21.8807,22.5674C22.2871,22.8817,22.8735,22.8376,23.2276,22.4524C23.6014,22.0458,23.5749,21.4132,23.1683,21.0394L21.3187,19.3382C21.7524,18.5744,22,17.6911,22,16.75Z" fill-rule="evenodd" fill="#40AE36" fill-opacity="1"/></g></g></svg>