<svg xmlns="http://www.w3.org/2000/svg" xmlns:xlink="http://www.w3.org/1999/xlink" fill="none" version="1.1" width="23.491455078125" height="22.775634765625" viewBox="0 0 23.491455078125 22.775634765625"><g><g><path d="M22,16.75C22,13.8505,19.6495,11.5,16.75,11.5C13.8505,11.5,11.5,13.8505,11.5,16.75C11.5,19.6495,13.8505,22,16.75,22C17.9851,22,19.1206,21.5735,20.0172,20.8598L21.8147,22.5117L21.8807,22.5674C22.2871,22.8817,22.8735,22.8376,23.2276,22.4524C23.6014,22.0458,23.5749,21.4132,23.1683,21.0394L21.3187,19.3382C21.7524,18.5744,22,17.6911,22,16.75ZM13.5,16.75C13.5,14.9551,14.9551,13.5,16.75,13.5C18.5449,13.5,20,14.9551,20,16.75C20,17.5186,19.7332,18.2249,19.2872,18.7813L19.2607,18.8052C19.2295,18.8391,19.201,18.8747,19.1764,18.9122C18.5812,19.5797,17.7147,20,16.75,20C14.9551,20,13.5,18.5449,13.5,16.75ZM10.5,16.75C10.5,13.8505,8.1495,11.5,5.25,11.5C2.35051,11.5,0,13.8505,0,16.75C0,19.6495,2.35051,22,5.25,22C8.1495,22,10.5,19.6495,10.5,16.75ZM2,16.75C2,14.9551,3.45507,13.5,5.25,13.5C7.04493,13.5,8.5,14.9551,8.5,16.75C8.5,18.5449,7.04493,20,5.25,20C3.45507,20,2,18.5449,2,16.75ZM10.5,5.25C10.5,2.35051,8.1495,0,5.25,0C2.35051,0,0,2.35051,0,5.25C0,8.1495,2.35051,10.5,5.25,10.5C8.1495,10.5,10.5,8.1495,10.5,5.25ZM2,5.25C2,3.45507,3.45507,2,5.25,2C7.04493,2,8.5,3.45507,8.5,5.25C8.5,7.04493,7.04493,8.5,5.25,8.5C3.45507,8.5,2,7.04493,2,5.25ZM22,5.25C22,2.35051,19.6495,0,16.75,0C13.8505,0,11.5,2.35051,11.5,5.25C11.5,8.1495,13.8505,10.5,16.75,10.5C19.6495,10.5,22,8.1495,22,5.25ZM13.5,5.25C13.5,3.45507,14.9551,2,16.75,2C18.5449,2,20,3.45507,20,5.25C20,7.04493,18.5449,8.5,16.75,8.5C14.9551,8.5,13.5,7.04493,13.5,5.25Z" fill-rule="evenodd" fill="#666666" fill-opacity="1"/></g></g></svg>